<?xml version="1.0" encoding="UTF-8"?>
<svg id="Layer_1" xmlns="http://www.w3.org/2000/svg" version="1.1" viewBox="0 0 134.15 42.03">
  <!-- Generator: Adobe Illustrator 30.8.1, SVG Export Plug-In . SVG Version: 2.1.4 Build 1)  -->
  <defs>
    <style>
      .st0 {
        fill: #fff;
      }
    </style>
  </defs>
  <path class="st0" d="M129.49,38.2s-.05-.1-.07-.19l-1.62-7.78-5.24,1.87v-12.31s4.13,0,4.13,0l-1.24-5.79h-2.89s0-10.18,0-10.18l-.4-.05h-6.38s-.39.03-.39.03c-.02,0-.06,0-.07.01,0,.02,0,.06,0,.11l.39,10.07h-2.69s-1.72,5.73-1.72,5.73c-.07.06-.02.14.05.07h4.59s.71,18.38.71,18.38c0,.05-.02.09.02.09h.1s12.72-.02,12.72-.02v-.03Z"/>
  <path class="st0" d="M28.6,31.1v-5.06s-.02-4.99-.02-4.99v-5.02s-.02-5.96-.02-5.96V3.81s-.31-.04-.31-.04h-7.69s-.32.05-.32.05l.94,10.17-15.6,1.73c-.01.19,0,.29.04.46l2.27,22.06h20.73s0-2.08,0-2.08v-5.07ZM13.75,32.06l-1.98-10.25,10.13-2.02,1.25,11.63-9.4.64Z"/>
  <polygon class="st0" points="65.62 32.09 65.62 19.81 70.88 19.8 70.05 13.99 65.62 13.99 65.62 3.8 65.31 3.77 58.7 3.77 58.39 3.81 58.78 13.99 56.1 13.99 54.35 19.79 59.01 19.8 59.72 38.24 73.39 38.24 71.72 30.22 65.62 32.09"/>
  <polygon class="st0" points="45.87 19.78 51.92 19.72 53.64 13.99 41.69 13.99 37.89 22.6 38.7 26.97 50.23 28.86 49.35 33.29 39.58 31.68 40.23 38.25 55.84 38.24 56.8 24.81 45.31 21.69 45.87 19.78"/>
  <polygon class="st0" points="104.87 31.9 102.88 20.8 108.88 19.79 110.79 13.99 98.29 13.99 97.77 38.24 114.41 38.25 112.97 31.2 104.87 31.9"/>
  <polygon class="st0" points="85.3 13.99 82.79 13.99 79.37 19.34 78.06 13.99 72.45 13.99 75.85 38.26 84.29 38.25 80.71 24.86 88.09 20.13 85.3 13.99"/>
  <polygon class="st0" points="30.98 22.42 31.17 38.25 37.81 38.24 35.65 22.43 30.98 22.42"/>
  <polygon class="st0" points="88.6 38.24 95.25 38.24 95.44 22.42 90.77 22.43 88.6 38.24"/>
  <polygon class="st0" points="87.87 13.99 90.56 19.82 95.46 19.81 95.39 13.99 87.87 13.99"/>
  <polygon class="st0" points="38.54 13.99 31.03 13.99 30.96 19.79 35.85 19.79 38.54 13.99"/>
</svg>